<?xml version="1.0" encoding="UTF-8" standalone="no"?><!DOCTYPE svg PUBLIC "-//W3C//DTD SVG 1.1//EN" "http://www.w3.org/Graphics/SVG/1.1/DTD/svg11.dtd"><svg width="100%" height="100%" viewBox="0 0 622 527" version="1.1" xmlns="http://www.w3.org/2000/svg" xmlns:xlink="http://www.w3.org/1999/xlink" xml:space="preserve" xmlns:serif="http://www.serif.com/" style="fill-rule:evenodd;clip-rule:evenodd;stroke-linejoin:round;stroke-miterlimit:2;"><path d="M601.242,64.771c0,-18.017 -7.958,-31.221 -23.904,-39.617c-5.45,-2.942 -11.95,-4.4 -19.5,-4.4c-18.017,0 -31.221,7.958 -39.612,23.9c-3.354,6.708 -5.017,13.208 -5.017,19.504c0,18.45 8.163,31.654 24.517,39.613c6.704,3.354 13.408,5.042 20.112,5.042c17.633,0 30.608,-7.983 39.004,-23.9c2.942,-5.887 4.4,-12.592 4.4,-20.142m-492.454,193.725c0,-12.154 -4.3,-22.546 -12.9,-31.142c-8.596,-8.6 -18.963,-12.9 -31.117,-12.9c-12.183,0 -22.546,4.3 -31.146,12.9c-8.6,8.596 -12.871,18.987 -12.871,31.142c0,12.158 4.271,22.546 12.871,31.121c8.6,8.6 18.963,12.896 31.146,12.896c12.154,0 22.521,-4.296 31.117,-12.896c8.6,-8.575 12.9,-18.963 12.9,-31.121m513.208,-193.725c0,9.65 -2.304,19.5 -6.908,29.558c-12.183,23.492 -31.25,35.238 -57.25,35.238c-5.858,0 -12.358,-1.046 -19.475,-3.146l-168.571,399.992l-15.096,0l-111.325,-257.858l-115.083,0c-2.1,15.1 -9.108,27.896 -21.063,38.362c-11.95,10.492 -26.1,15.712 -42.454,15.712c-8.804,0 -17.2,-1.663 -25.158,-5.017c-7.983,-3.35 -14.892,-7.958 -20.754,-13.846c-5.883,-5.858 -10.492,-12.667 -13.846,-20.446c-3.35,-7.754 -5.012,-16.021 -5.012,-24.825c0,-8.8 1.663,-17.196 5.012,-25.154c3.354,-7.958 7.963,-14.896 13.846,-20.754c5.862,-5.887 12.771,-10.492 20.754,-13.846c7.958,-3.354 16.354,-5.042 25.158,-5.042c16.354,0 30.504,5.146 42.454,15.404c11.954,10.292 18.963,23.188 21.063,38.696l106.279,0l-74.825,-172.971l-44.658,0l0,-20.117l136.479,0l145.921,354.083l122.633,-291.179c-18.45,-12.592 -27.663,-29.992 -27.663,-52.204c0,-10.496 2.508,-20.55 7.521,-30.2c12.158,-23.467 31.454,-35.213 57.862,-35.213c9.242,0 18.888,2.304 28.946,6.908c23.467,12.183 35.213,31.454 35.213,57.862" style="fill:#ffffff;fill-rule:nonzero;"/></svg>
